# xmcd
#
# Track frame offsets: 
#        150
#        10495
#        22767
#        33947
#        44155
#        55295
#        67892
#        78660
#        89200
#        100907
#        111792
#
# Disc length: 1657 seconds
#
# Revision: 1
# Processed by: cddbd v1.4PL0 Copyright (c) Steve Scherf et al.
# Submitted via: ExactAudioCopy v0.90b3
#
DISCID=8f06770b
DTITLE=George Jones - The Hits
DYEAR=1900
DGENRE=Country
TTITLE0=Why Baby Why
TTITLE1=Just One More
TTITLE2=You Gotta Be My Baby
TTITLE3=Don't Stop The Music
TTITLE4=Tall Tall Trees
TTITLE5=White Lightning
TTITLE6=Who Shot Sam
TTITLE7=Treasure Of Love
TTITLE8=Window Up Above
TTITLE9=Tender Years
TTITLE10=Achin', Breakin' Heart
EXTD=
EXTT0=
EXTT1=
EXTT2=
EXTT3=
EXTT4=
EXTT5=
EXTT6=
EXTT7=
EXTT8=
EXTT9=
EXTT10=
PLAYORDER=
